<svg xmlns="http://www.w3.org/2000/svg" width="48.443" height="51.01" viewBox="0 0 48.443 51.01">
  <path id="Tracé_159" data-name="Tracé 159" d="M6154.238,538.2a6.09,6.09,0,0,0-2.758-5.085,6.028,6.028,0,0,0,.52-2.451,6.1,6.1,0,0,0-6.081-6.081h-11.667l.193-8.272c.44-3.354-1.948-7.483-5.3-7.921s-4.407,1.948-4.846,5.3l-.492,3.765a14.017,14.017,0,0,1-2.635,6.521,13.741,13.741,0,0,1-3.572,3.371,17.385,17.385,0,0,0-4.735,4.491h-7.069v22.529h8.692v-.339a17.4,17.4,0,0,0,10.116,5.157,5.752,5.752,0,0,0,1.358.163h14.169a5.808,5.808,0,0,0,5.791-5.791v-.581a5.752,5.752,0,0,0-.118-1.16h.118a6.1,6.1,0,0,0,6.082-6.081,6.028,6.028,0,0,0-.52-2.451A6.088,6.088,0,0,0,6154.238,538.2Z" transform="translate(-6105.795 -508.337)" fill="#047eda"/>
</svg>
