<svg xmlns="http://www.w3.org/2000/svg" width="34.739" height="48.707" viewBox="0 0 34.739 48.707">
  <path id="Tracé_154" data-name="Tracé 154" d="M3086.852,684.309H3059.64a3.763,3.763,0,0,0-3.764,3.763v41.18a3.763,3.763,0,0,0,3.764,3.763h27.212a3.762,3.762,0,0,0,3.763-3.763v-41.18A3.762,3.762,0,0,0,3086.852,684.309Zm-18.161,8.062q0-.126.153-.126h2.128a.165.165,0,0,1,.179.153l1.19,5.9c.009.029.022.042.042.042s.031-.013.04-.042l1.162-5.9c.009-.1.069-.153.181-.153h2.073c.128,0,.179.062.15.179l-2.405,9.361a.179.179,0,0,1-.193.137h-2.128a.179.179,0,0,1-.195-.137l-2.379-9.361Zm-7.175,2.887a3.22,3.22,0,0,1,.407-1.644,2.774,2.774,0,0,1,1.162-1.093,3.757,3.757,0,0,1,1.735-.387,3.85,3.85,0,0,1,1.737.374,2.692,2.692,0,0,1,1.159,1.064,3.1,3.1,0,0,1,.409,1.6v.055a.186.186,0,0,1-.049.124.149.149,0,0,1-.117.055L3066,695.5c-.113,0-.166-.051-.166-.153v-.192a1.051,1.051,0,0,0-.279-.761,1.07,1.07,0,0,0-1.465,0,1.058,1.058,0,0,0-.277.761v3.87a1.061,1.061,0,0,0,.277.761,1.07,1.07,0,0,0,1.465,0,1.055,1.055,0,0,0,.279-.761v-.193c0-.1.053-.153.166-.153l1.963.082a.156.156,0,0,1,.117.055.2.2,0,0,1,.049.126v.027a3.132,3.132,0,0,1-.409,1.611,2.74,2.74,0,0,1-1.159,1.08,3.822,3.822,0,0,1-1.737.378,3.731,3.731,0,0,1-1.735-.387,2.737,2.737,0,0,1-1.162-1.106,3.294,3.294,0,0,1-.407-1.657Zm15.242,29.546h-15.284v-3.25h15.284Zm8.26-7.211h-23.544v-3.25h23.544Zm0-7.211h-23.544v-3.25h23.544Z" transform="translate(-3055.876 -684.309)" fill="#047eda"/>
</svg>
