<svg xmlns="http://www.w3.org/2000/svg" width="62.081" height="45.056" viewBox="0 0 62.081 45.056">
  <g id="Groupe_275" data-name="Groupe 275" transform="translate(0)">
    <path id="Tracé_163" data-name="Tracé 163" d="M1913.242,983.232a6.212,6.212,0,0,1,5.822-4.1h42.952v-3.5a3.266,3.266,0,0,0-3.264-3.267h-27.783v-3.443a1.807,1.807,0,0,0-1.806-1.809H1915.05a1.808,1.808,0,0,0-1.808,1.809v3.443h-2.586a3.266,3.266,0,0,0-3.266,3.267v28.2l5.721-20.2C1913.15,983.5,1913.194,983.365,1913.242,983.232Z" transform="translate(-1907.39 -967.12)" fill="#047eda"/>
    <path id="Tracé_164" data-name="Tracé 164" d="M1969.769,1029.45h-46.491a3.916,3.916,0,0,0-3.766,2.847l-2.056,7.259-4.449,15.711a3.891,3.891,0,0,0,3.746,4.951h46.536a3.89,3.89,0,0,0,3.743-2.831l6.5-22.959A3.914,3.914,0,0,0,1969.769,1029.45Z" transform="translate(-1911.604 -1015.162)" fill="#047eda"/>
  </g>
</svg>
