<svg xmlns="http://www.w3.org/2000/svg" width="66.001" height="54.837" viewBox="0 0 66.001 54.837">
  <g id="Groupe_262" data-name="Groupe 262" transform="translate(0)">
    <path id="Tracé_152" data-name="Tracé 152" d="M2338.638,734.778v16.647a5.792,5.792,0,0,1-5.786,5.786H2318.04a18.564,18.564,0,0,0,18.117,14.514c.392,0,.782-.015,1.169-.039l6.876,6.876v-8.668a18.56,18.56,0,0,0-5.564-35.117Z" transform="translate(-2288.713 -723.726)" fill="#047eda"/>
    <path id="Tracé_153" data-name="Tracé 153" d="M2231.563,712.008v-24.4a3.3,3.3,0,0,0-3.3-3.3h-40.837a3.3,3.3,0,0,0-3.3,3.3v24.4a3.3,3.3,0,0,0,3.3,3.3h5.547V724.1l8.783-8.786h26.506A3.3,3.3,0,0,0,2231.563,712.008Z" transform="translate(-2184.12 -684.308)" fill="#047eda"/>
  </g>
</svg>
