<svg xmlns="http://www.w3.org/2000/svg" width="57.108" height="49.643" viewBox="0 0 57.108 49.643">
  <g id="Groupe_274" data-name="Groupe 274" transform="translate(0)">
    <path id="Tracé_156" data-name="Tracé 156" d="M3594.355,1185.943v1.742a1.287,1.287,0,0,1-1.282,1.282h-6.757a1.287,1.287,0,0,1-1.282-1.282v-1.742a1.042,1.042,0,0,1,.022-.224l-24.047-8.39v21.1a3.221,3.221,0,0,0,3.221,3.221H3614.9a3.221,3.221,0,0,0,3.221-3.221v-21.1l-23.8,8.306A1.14,1.14,0,0,1,3594.355,1185.943Z" transform="translate(-3561.01 -1152.012)" fill="#047eda"/>
    <path id="Tracé_157" data-name="Tracé 157" d="M3614.9,1075.764h-11.38v-5.356a5.011,5.011,0,0,0-5.006-5.008H3581.7a5.013,5.013,0,0,0-5.006,5.008v5.356h-12.468a3.221,3.221,0,0,0-3.221,3.223v9.052h.111l28.444,9.925,28.442-9.925h.111v-9.052A3.221,3.221,0,0,0,3614.9,1075.764Zm-15.225,0h-19.127v-5.356a1.161,1.161,0,0,1,1.16-1.16h16.806a1.161,1.161,0,0,1,1.16,1.16Z" transform="translate(-3561.01 -1065.4)" fill="#047eda"/>
  </g>
</svg>
