<svg xmlns="http://www.w3.org/2000/svg" xmlns:xlink="http://www.w3.org/1999/xlink" width="60.933" height="11.388" viewBox="0 0 60.933 11.388">
  <defs>
    <clipPath id="clip-path">
      <rect id="Rectangle_1262" data-name="Rectangle 1262" width="47.258" height="11.177" fill="#11191f"/>
    </clipPath>
  </defs>
  <g id="Groupe_629" data-name="Groupe 629" transform="translate(-169.567 -63.912)">
    <path id="Tracé_227" data-name="Tracé 227" d="M2.94-6.2a1.589,1.589,0,0,1,1.248.51,2.022,2.022,0,0,1,.456,1.4v2.5A2,2,0,0,1,4.182-.426,1.575,1.575,0,0,1,2.94.1a1.679,1.679,0,0,1-.582-.108,1.507,1.507,0,0,1-.522-.324Q1.812-.36,1.794-.348a.04.04,0,0,0-.018.036V-.12a.106.106,0,0,1-.12.12H.744a.106.106,0,0,1-.12-.12V-8.28a.106.106,0,0,1,.12-.12h.912a.106.106,0,0,1,.12.12v2.5a.028.028,0,0,0,.024.03q.024.006.048-.03A1.556,1.556,0,0,1,2.94-6.2ZM3.5-4.224a1.024,1.024,0,0,0-.246-.708.806.806,0,0,0-.63-.276.775.775,0,0,0-.612.276,1.04,1.04,0,0,0-.24.708v2.34a1.04,1.04,0,0,0,.24.708A.775.775,0,0,0,2.628-.9a.806.806,0,0,0,.63-.276A1.024,1.024,0,0,0,3.5-1.884ZM5.628,2.388q-.024,0-.048-.036a.148.148,0,0,1-.024-.084V1.56a.106.106,0,0,1,.12-.12,1.515,1.515,0,0,0,.606-.12.8.8,0,0,0,.36-.408A3.618,3.618,0,0,0,6.876.036l-.012-.06L5.328-5.976l-.012-.036q0-.1.12-.1H6.42A.115.115,0,0,1,6.552-6l.876,4.332q.012.036.024.036t.024-.036L8.34-6a.123.123,0,0,1,.132-.108l1,.012a.11.11,0,0,1,.09.036.09.09,0,0,1,.006.1L7.92.42a5.7,5.7,0,0,1-.456,1.23,1.279,1.279,0,0,1-.63.57,3.079,3.079,0,0,1-1.146.168Z" transform="translate(168.943 72.912)" fill="#11191f"/>
    <g id="Groupe_621" data-name="Groupe 621" transform="translate(183.242 63.912)">
      <g id="Groupe_616" data-name="Groupe 616" clip-path="url(#clip-path)">
        <path id="Tracé_222" data-name="Tracé 222" d="M149.76,4.926V3.957a.5.5,0,0,0-.495-.495h-.794l-3.14-3.14a.521.521,0,0,0-.733,0L143.33,1.593a.518.518,0,0,0,0,.732l3.421,3.422L143.33,9.167a.518.518,0,0,0,0,.732l1.269,1.27a.521.521,0,0,0,.733,0l2.693-2.693a.63.63,0,0,1-.28-.522V6.048a.63.63,0,0,1,.628-.628h.893a.5.5,0,0,0,.495-.494" transform="translate(-130.512 -0.157)" fill="#11191f"/>
        <path id="Tracé_223" data-name="Tracé 223" d="M202.1,6.565v.969a.5.5,0,0,0,.495.495h.794l3.14,3.14a.521.521,0,0,0,.732,0L208.529,9.9a.518.518,0,0,0,0-.732l-3.421-3.422,3.421-3.421a.518.518,0,0,0,0-.732L207.26.323a.521.521,0,0,0-.732,0l-2.693,2.693a.63.63,0,0,1,.28.522V5.444a.63.63,0,0,1-.628.628h-.893a.5.5,0,0,0-.495.494" transform="translate(-184.22 -0.157)" fill="#11191f"/>
        <path id="Tracé_224" data-name="Tracé 224" d="M5.783,11.179a6.363,6.363,0,0,1-2.43-.441,5.4,5.4,0,0,1-1.825-1.2A5.13,5.13,0,0,1,.39,7.785,5.652,5.652,0,0,1,0,5.7,6.206,6.206,0,0,1,.39,3.5,5.346,5.346,0,0,1,1.518,1.684,5.268,5.268,0,0,1,3.332.453,6.3,6.3,0,0,1,5.783,0a6.22,6.22,0,0,1,2.44.451,5.364,5.364,0,0,1,1.8,1.22,5.178,5.178,0,0,1,1.118,1.774,5.932,5.932,0,0,1,.379,2.112q0,.287-.021.564a4.053,4.053,0,0,1-.061.482H3.486a2.211,2.211,0,0,0,.789,1.651,2.511,2.511,0,0,0,1.61.564A2.947,2.947,0,0,0,7.27,8.472a1.78,1.78,0,0,0,.892-.943l2.789.779a5.018,5.018,0,0,1-1.969,2.071,6.107,6.107,0,0,1-3.2.8m2.276-6.6a2.468,2.468,0,0,0-.738-1.62A2.224,2.224,0,0,0,5.742,2.36a2.193,2.193,0,0,0-1.589.605,2.51,2.51,0,0,0-.728,1.61Z" transform="translate(0 -0.002)" fill="#11191f"/>
        <path id="Tracé_225" data-name="Tracé 225" d="M433.213,11.179a8.57,8.57,0,0,1-2.707-.441,6.175,6.175,0,0,1-2.256-1.282l1.169-2.01a9.715,9.715,0,0,0,1.918,1.046,4.869,4.869,0,0,0,1.794.369,1.808,1.808,0,0,0,.984-.226.734.734,0,0,0,.349-.656.773.773,0,0,0-.441-.687,6.805,6.805,0,0,0-1.548-.543q-1.087-.308-1.835-.595a5.16,5.16,0,0,1-1.22-.636,2.059,2.059,0,0,1-.677-.8,2.555,2.555,0,0,1-.205-1.066,3.352,3.352,0,0,1,1.23-2.646,4.285,4.285,0,0,1,1.364-.738A5.327,5.327,0,0,1,432.844,0,7.608,7.608,0,0,1,435.11.33a5.671,5.671,0,0,1,2.04,1.189l-1.271,1.969a8.685,8.685,0,0,0-1.641-.923,3.747,3.747,0,0,0-1.395-.287,1.762,1.762,0,0,0-.9.215.737.737,0,0,0-.369.687.73.73,0,0,0,.4.677,6.611,6.611,0,0,0,1.487.492,18.932,18.932,0,0,1,1.938.615,5.192,5.192,0,0,1,1.282.687,2.334,2.334,0,0,1,.718.872,2.788,2.788,0,0,1,.225,1.169,3.076,3.076,0,0,1-1.189,2.543,5.042,5.042,0,0,1-3.22.943" transform="translate(-390.364 -0.002)" fill="#11191f"/>
        <path id="Tracé_226" data-name="Tracé 226" d="M294.98,0a5.588,5.588,0,1,0,5.589,5.588A5.588,5.588,0,0,0,294.98,0m0,8.347a2.758,2.758,0,1,1,2.758-2.758,2.758,2.758,0,0,1-2.758,2.758" transform="translate(-263.79)" fill="#11191f"/>
      </g>
    </g>
  </g>
</svg>
