<svg xmlns="http://www.w3.org/2000/svg" width="137" height="101.854" viewBox="0 0 137 101.854">
  <g id="Groupe_370" data-name="Groupe 370" transform="translate(-14 -780.146)">
    <ellipse id="Ellipse_47" data-name="Ellipse 47" cx="44" cy="45.5" rx="44" ry="45.5" transform="translate(14 791)" fill="#047eda" opacity="0.13"/>
    <ellipse id="Ellipse_48" data-name="Ellipse 48" cx="44" cy="45.5" rx="44" ry="45.5" transform="translate(63 791)" fill="#047eda" opacity="0"/>
    <g id="Groupe_365" data-name="Groupe 365" transform="translate(-2195.244 -2714.874)">
      <path id="Tracé_194" data-name="Tracé 194" d="M2308.994,3575.75h-47.952v-63.5h47.952v43.6l3.021-3.021v-42.091a1.51,1.51,0,0,0-1.51-1.51h-6.88v-5.6a1.51,1.51,0,0,0-1.51-1.51h-6.879v-5.6a1.51,1.51,0,0,0-1.51-1.51h-50.973a1.51,1.51,0,0,0-1.51,1.51v66.519a1.51,1.51,0,0,0,1.51,1.51h6.879v5.6a1.51,1.51,0,0,0,1.51,1.51h6.879v5.6a1.51,1.51,0,0,0,1.511,1.51H2310.5a1.51,1.51,0,0,0,1.51-1.51v-11.615l-3.021,3.021Zm-64.73-14.212v-63.5h47.953v4.086h-41.073a1.51,1.51,0,0,0-1.51,1.51v57.9Zm8.389,7.106v-63.5h47.953v4.086h-41.073a1.512,1.512,0,0,0-1.51,1.51v57.9Z" transform="translate(0 0)" fill="#047eda"/>
      <path id="Tracé_195" data-name="Tracé 195" d="M2797.174,4085.322a1.5,1.5,0,0,0-.6-.367,1.508,1.508,0,0,0-1.536.367l-4.515,4.515-3.021,3.021-6.3,6.3-7.527-7.527a1.721,1.721,0,0,0-.181-.156c-.035-.025-.07-.049-.106-.071a1.567,1.567,0,0,0-.394-.175c-.039-.011-.079-.021-.118-.03a1.569,1.569,0,0,0-.316-.032,1.476,1.476,0,0,0-1,.38,1.511,1.511,0,0,0-.055,2.188l.817.817,5.633,5.633,2.145,2.146.016.015.013.015a1.49,1.49,0,0,0,.655.384c.035.01.071.019.106.026a1.509,1.509,0,0,0,.3.031,1.527,1.527,0,0,0,.76-.2l.035-.021c.026-.017.051-.034.076-.052l.054-.041c.021-.016.041-.032.06-.048a.337.337,0,0,0,.032-.026c.009-.007.017-.017.025-.025s.02-.017.028-.025l.162-.162,3.02-3.02,2.053-2.053,3.021-3.022,6.65-6.65A1.51,1.51,0,0,0,2797.174,4085.322Z" transform="translate(-478.51 -532.732)" fill="#047eda"/>
      <path id="Tracé_196" data-name="Tracé 196" d="M2553.677,3750.932h-29.533a1.51,1.51,0,1,0,0,3.02h29.533a1.51,1.51,0,0,0,0-3.02Z" transform="translate(-254.138 -231.127)" fill="#047eda"/>
      <path id="Tracé_197" data-name="Tracé 197" d="M2553.677,3833.134h-29.533a1.51,1.51,0,1,0,0,3.02h29.533a1.51,1.51,0,0,0,0-3.02Z" transform="translate(-254.138 -305.368)" fill="#047eda"/>
      <path id="Tracé_198" data-name="Tracé 198" d="M2553.677,3915.336h-29.533a1.51,1.51,0,0,0,0,3.02h29.533a1.51,1.51,0,0,0,0-3.02Z" transform="translate(-254.138 -379.609)" fill="#047eda"/>
      <path id="Tracé_199" data-name="Tracé 199" d="M2553.677,3997.538h-29.533a1.51,1.51,0,0,0,0,3.02h29.533a1.51,1.51,0,0,0,0-3.02Z" transform="translate(-254.138 -453.85)" fill="#047eda"/>
    </g>
  </g>
</svg>
