<svg id="event-24px" xmlns="http://www.w3.org/2000/svg" width="22" height="22" viewBox="0 0 22 22">
  <path id="Tracé_215" data-name="Tracé 215" d="M0,0H22V22H0Z" fill="none"/>
  <path id="Tracé_216" data-name="Tracé 216" d="M14.556,11.9H11.889a.9.9,0,0,0-.889.9v2.7a.9.9,0,0,0,.889.9h2.667a.9.9,0,0,0,.889-.9V12.8A.9.9,0,0,0,14.556,11.9Zm0-9v.9H7.444V2.9a.889.889,0,1,0-1.778,0v.9H4.778A1.781,1.781,0,0,0,3.009,5.6L3,18.2A1.789,1.789,0,0,0,4.778,20H17.222A1.794,1.794,0,0,0,19,18.2V5.6a1.794,1.794,0,0,0-1.778-1.8h-.889V2.9a.889.889,0,1,0-1.778,0Zm1.778,15.3H5.667a.9.9,0,0,1-.889-.9v-9H17.222v9A.9.9,0,0,1,16.333,18.2Z" fill="#f6f9fb"/>
</svg>
