<svg xmlns="http://www.w3.org/2000/svg" viewBox="0 0 1651.26 1221.63"><defs><style>.cls-1,.cls-2,.cls-3{fill:#047eda;}.cls-1{opacity:0;}.cls-1,.cls-2{isolation:isolate;}.cls-2{opacity:0.13;}</style></defs><g id="Calque_2" data-name="Calque 2"><g id="_01" data-name="01"><ellipse id="Ellipse_47" data-name="Ellipse 47" class="cls-1" cx="1123.16" cy="675.52" rx="528.1" ry="546.11"/><ellipse id="Ellipse_47-2" data-name="Ellipse 47" class="cls-2" cx="528.1" cy="675.52" rx="528.1" ry="546.11"/><path class="cls-3" d="M424.62,478.64a15.59,15.59,0,1,0-17.46-25.84,127.09,127.09,0,0,0-37.67,39.82,280.83,280.83,0,0,1,33,6.86A95.19,95.19,0,0,1,424.62,478.64Z"/><path class="cls-3" d="M759.09,452.8a126.91,126.91,0,0,0-48.53,62.94,15.58,15.58,0,0,0,9.59,19.85,15.38,15.38,0,0,0,5.13.88A15.59,15.59,0,0,0,740,526a95.58,95.58,0,0,1,36.54-47.37,15.59,15.59,0,1,0-17.45-25.84Z"/><path class="cls-3" d="M1248.5,363.42c67.17-29.17,114.27-96.14,114.27-173.92,0-104.49-85-189.5-189.5-189.5-77.78,0-144.75,47.1-173.92,114.27C970.18,47.1,903.21,0,825.44,0S680.7,47.1,651.53,114.27C622.36,47.1,555.39,0,477.61,0c-104.49,0-189.5,85-189.5,189.5,0,77.78,47.1,144.75,114.27,173.92A190.29,190.29,0,0,0,293.7,491.57a285.75,285.75,0,0,1,32.95-2c20.3-64,80.29-110.57,151-110.57,87.3,0,158.32,71,158.33,158.3V907.25a15.59,15.59,0,0,0,31.18,0V537.31c0-87.29,71-158.3,158.32-158.3s158.32,71,158.32,158.32V907.25a15.59,15.59,0,1,0,31.18,0V537.33c0-87.3,71-158.32,158.33-158.32s158.32,71,158.32,158.32V907.25a15.59,15.59,0,1,0,31.18,0V537.33C1362.77,459.56,1315.67,392.59,1248.5,363.42ZM319.29,189.5c0-87.3,71-158.32,158.32-158.32s158.33,71,158.33,158.32-71,158.33-158.33,158.33S319.29,276.8,319.29,189.5ZM651.53,462.1a190.64,190.64,0,0,0-98.68-98.68,190.67,190.67,0,0,0,98.68-98.68,190.6,190.6,0,0,0,98.68,98.68A190.56,190.56,0,0,0,651.53,462.1Zm15.59-272.6c0-87.3,71-158.32,158.32-158.32s158.32,71,158.32,158.32-71,158.33-158.32,158.33S667.12,276.8,667.12,189.5ZM999.35,462.1a190.6,190.6,0,0,0-98.68-98.68,190.64,190.64,0,0,0,98.68-98.68A190.67,190.67,0,0,0,1098,363.42,190.64,190.64,0,0,0,999.35,462.1Zm15.59-272.58v0c0-87.29,71-158.3,158.33-158.3s158.32,71,158.32,158.32-71,158.33-158.32,158.33S1015,276.81,1014.94,189.52Z"/><path class="cls-3" d="M1106.92,452.8a126.91,126.91,0,0,0-48.53,62.94,15.58,15.58,0,0,0,9.58,19.85,15.39,15.39,0,0,0,5.14.88A15.61,15.61,0,0,0,1087.83,526a95.58,95.58,0,0,1,36.54-47.37,15.59,15.59,0,0,0-17.45-25.84Z"/><path class="cls-3" d="M719.14,571.32a15.59,15.59,0,0,0-15.59,15.59V907.25a15.59,15.59,0,1,0,31.18,0V586.91A15.59,15.59,0,0,0,719.14,571.32Z"/><path class="cls-3" d="M1067,571.32a15.59,15.59,0,0,0-15.59,15.59V907.25a15.59,15.59,0,1,0,31.18,0V586.91A15.59,15.59,0,0,0,1067,571.32Z"/><path class="cls-3" d="M519.44,928.86a247,247,0,0,0-136-396.13q-11.7-2.7-23.73-4.25a249.32,249.32,0,0,0-32.09-2.06q-4,0-8,.13A246.9,246.9,0,1,0,498.28,951.79l109.87,109.87a15.59,15.59,0,0,0,22.05-22.05Zm-39.24-3A215.73,215.73,0,1,1,288.11,561.19a217.89,217.89,0,0,1,31.18-3.43q4.17-.16,8.37-.16A215.73,215.73,0,0,1,480.2,925.87Z"/></g></g></svg>