<svg xmlns="http://www.w3.org/2000/svg" width="38" height="37" viewBox="0 0 38 37">
  <g id="linkedin" transform="translate(0.326 0.291)">
    <g id="linkedin-2" data-name="linkedin" transform="translate(11.302 8.791)">
      <path id="Tracé_41" data-name="Tracé 41" d="M18.436,18.112h0V12.465c0-2.762-.595-4.891-3.824-4.891a3.353,3.353,0,0,0-3.02,1.66h-.045v-1.4H8.489V18.111h3.188v-5.09c0-1.34.254-2.636,1.914-2.636,1.635,0,1.66,1.529,1.66,2.722v5Z" transform="translate(-3.043 -2.715)" fill="#f6f9fb"/>
      <path id="Tracé_42" data-name="Tracé 42" d="M.4,7.977H3.588V18.256H.4Z" transform="translate(-0.142 -2.859)" fill="#f6f9fb"/>
      <path id="Tracé_43" data-name="Tracé 43" d="M1.849,0A1.858,1.858,0,1,0,3.7,1.849,1.849,1.849,0,0,0,1.849,0Z" fill="#f6f9fb"/>
    </g>
    <g id="Tracé_50" data-name="Tracé 50" transform="translate(-0.326 -0.291)" fill="none">
      <path d="M19,0A18.755,18.755,0,0,1,38,18.5,18.755,18.755,0,0,1,19,37,18.755,18.755,0,0,1,0,18.5,18.755,18.755,0,0,1,19,0Z" stroke="none"/>
      <path d="M 19 2 C 14.44908905029297 2 10.17326927185059 3.722949981689453 6.960199356079102 6.851470947265625 C 3.761569976806641 9.965930938720703 2 14.10279083251953 2 18.5 C 2 22.89720916748047 3.761569976806641 27.0340690612793 6.960199356079102 30.14852905273438 C 10.17326927185059 33.27705001831055 14.44908905029297 35 19 35 C 23.55091094970703 35 27.82672882080078 33.27705001831055 31.0398006439209 30.14852905273438 C 34.23843002319336 27.0340690612793 36 22.89720916748047 36 18.5 C 36 14.10279083251953 34.23843002319336 9.965930938720703 31.0398006439209 6.851470947265625 C 27.82672882080078 3.722949981689453 23.55091094970703 2 19 2 M 19 0 C 29.49341011047363 0 38 8.282730102539062 38 18.5 C 38 28.71726989746094 29.49341011047363 37 19 37 C 8.506589889526367 37 0 28.71726989746094 0 18.5 C 0 8.282730102539062 8.506589889526367 0 19 0 Z" stroke="none" fill="#f6f9fb"/>
    </g>
  </g>
</svg>
