<svg id="document" xmlns="http://www.w3.org/2000/svg" width="19.737" height="22.023" viewBox="0 0 19.737 22.023">
  <g id="Groupe_27" data-name="Groupe 27" transform="translate(0)">
    <g id="Groupe_26" data-name="Groupe 26">
      <path id="Tracé_45" data-name="Tracé 45" d="M117.04,200.86a.86.86,0,0,0-.86-.86h-8.861a.86.86,0,1,0,0,1.721h8.861A.86.86,0,0,0,117.04,200.86Z" transform="translate(-103.023 -191.397)" fill="#11191f"/>
      <path id="Tracé_46" data-name="Tracé 46" d="M107.319,280a.86.86,0,0,0,0,1.721H112.7a.86.86,0,0,0,0-1.721Z" transform="translate(-103.023 -267.956)" fill="#11191f"/>
      <path id="Tracé_47" data-name="Tracé 47" d="M32.888,20.3H30.011a1.722,1.722,0,0,1-1.721-1.721V3.441a1.722,1.722,0,0,1,1.721-1.721H40.588a1.722,1.722,0,0,1,1.721,1.721V8.732a.86.86,0,1,0,1.721,0V3.441A3.445,3.445,0,0,0,40.588,0H30.011A3.445,3.445,0,0,0,26.57,3.441V18.582a3.445,3.445,0,0,0,3.441,3.441h2.877a.86.86,0,1,0,0-1.721Z" transform="translate(-26.57)" fill="#11191f"/>
      <path id="Tracé_48" data-name="Tracé 48" d="M253.11,272.779a2.584,2.584,0,0,0-3.649,0l-4.723,4.713a.86.86,0,0,0-.216.359l-1.029,3.386a.86.86,0,0,0,1.053,1.079l3.472-.962a.86.86,0,0,0,.378-.22l4.713-4.7A2.584,2.584,0,0,0,253.11,272.779Zm-5.768,6.977-1.747.484.511-1.683,3.187-3.18,1.217,1.217Zm4.552-4.544-.167.166-1.217-1.217.166-.166a.86.86,0,0,1,1.217,1.216Z" transform="translate(-234.128 -260.323)" fill="#11191f"/>
      <path id="Tracé_49" data-name="Tracé 49" d="M116.18,120h-8.861a.86.86,0,0,0,0,1.721h8.861a.86.86,0,0,0,0-1.721Z" transform="translate(-103.023 -114.838)" fill="#11191f"/>
    </g>
  </g>
</svg>
