<svg xmlns="http://www.w3.org/2000/svg" width="137" height="101.854" viewBox="0 0 137 101.854">
  <g id="Groupe_371" data-name="Groupe 371" transform="translate(-14 -780.146)">
    <g id="Groupe_352" data-name="Groupe 352" transform="translate(2474.895 -1167.862)">
      <path id="Tracé_167" data-name="Tracé 167" d="M-2376.771,1968.245a1.3,1.3,0,0,0,.96-1.542l0-.014a13.288,13.288,0,0,1-.321-2.775c0-.038,0-.075,0-.113s0-.093,0-.14a13.114,13.114,0,0,1,.214-2.239,1.3,1.3,0,0,0-.666-1.381,15.82,15.82,0,0,0-15.339-12.033,15.815,15.815,0,0,0-14.493,9.523,15.816,15.816,0,0,0-14.493-9.523,15.81,15.81,0,0,0-15.792,15.792,15.815,15.815,0,0,0,9.523,14.493,15.815,15.815,0,0,0-9.523,14.493v30.827a1.3,1.3,0,0,0,1.3,1.3,1.3,1.3,0,0,0,1.3-1.3v-30.827a13.209,13.209,0,0,1,13.194-13.194,13.209,13.209,0,0,1,13.194,13.192v30.829a1.3,1.3,0,0,0,1.037,1.273,1.313,1.313,0,0,0,.262.026,1.311,1.311,0,0,0,.262-.026,1.3,1.3,0,0,0,1.037-1.273v-30.829a13.209,13.209,0,0,1,13.194-13.192,13.209,13.209,0,0,1,13.194,13.192v3.129h0v9.42h0v5.889h0v9.435h0v2.953a1.3,1.3,0,0,0,1.3,1.3h0a1.3,1.3,0,0,0,1.3-1.3v-30.831a13.293,13.293,0,0,1,.236-2.5,1.3,1.3,0,0,0-.729-1.422,15.861,15.861,0,0,0-9.03-10.573A15.868,15.868,0,0,0-2376.771,1968.245Zm-57.335-4.444a13.209,13.209,0,0,1,13.194-13.194,13.209,13.209,0,0,1,13.194,13.194,13.209,13.209,0,0,1-13.194,13.194A13.209,13.209,0,0,1-2434.107,1963.8Zm27.687,22.717a15.887,15.887,0,0,0-8.224-8.224,15.888,15.888,0,0,0,8.224-8.224,15.886,15.886,0,0,0,8.223,8.224A15.886,15.886,0,0,0-2406.419,1986.517Zm14.493-9.523a13.209,13.209,0,0,1-13.194-13.194,13.209,13.209,0,0,1,13.194-13.194,13.208,13.208,0,0,1,13.192,13.058c0,.041,0,.082,0,.123s0,.083,0,.124A13.209,13.209,0,0,1-2391.927,1976.994Z" fill="#047eda"/>
      <path id="Tracé_168" data-name="Tracé 168" d="M-1683.8,1963.7a1.3,1.3,0,0,0,.882-.345,13.042,13.042,0,0,1,4.513-2.729,1.3,1.3,0,0,0,.789-1.659,1.3,1.3,0,0,0-1.659-.789,15.63,15.63,0,0,0-5.407,3.269,1.3,1.3,0,0,0-.072,1.836A1.3,1.3,0,0,0-1683.8,1963.7Z" transform="translate(-688.97 -9.249)" fill="#047eda"/>
      <path id="Tracé_169" data-name="Tracé 169" d="M-1676.148,2257.228a13.179,13.179,0,0,1-4.624-2.55,1.3,1.3,0,0,0-1.831.149,1.3,1.3,0,0,0,.149,1.831,15.772,15.772,0,0,0,3.956,2.464,15.7,15.7,0,0,0-4.26,2.732,1.3,1.3,0,0,0-.1,1.835,1.3,1.3,0,0,0,.968.432,1.294,1.294,0,0,0,.867-.332,13.111,13.111,0,0,1,4.6-2.682,1.3,1.3,0,0,0,.818-1.646c-.007-.021-.016-.041-.024-.061a1.3,1.3,0,0,0,.336-.544A1.3,1.3,0,0,0-1676.148,2257.228Z" transform="translate(-690.721 -280.829)" fill="#047eda"/>
      <path id="Tracé_170" data-name="Tracé 170" d="M-1397.363,2090.473a1.3,1.3,0,0,0,1.042,1.513,1.31,1.31,0,0,0,.237.022,1.3,1.3,0,0,0,1.276-1.064,15.721,15.721,0,0,0,.26-2.846,15.879,15.879,0,0,0-.386-3.47l-.005-.024a1.3,1.3,0,0,0-1.555-.98,1.3,1.3,0,0,0-.98,1.554l0,.018a13.276,13.276,0,0,1,.323,2.9A13.127,13.127,0,0,1-1397.363,2090.473Z" transform="translate(-952.597 -124.284)" fill="#047eda"/>
      <path id="Tracé_171" data-name="Tracé 171" d="M-1514.55,1958.37a13.185,13.185,0,0,1,4.626,2.547,1.294,1.294,0,0,0,.84.308,1.3,1.3,0,0,0,.991-.459,1.3,1.3,0,0,0-.15-1.831,15.77,15.77,0,0,0-5.532-3.046,1.3,1.3,0,0,0-1.627.853A1.3,1.3,0,0,0-1514.55,1958.37Z" transform="translate(-844.47 -7.17)" fill="#047eda"/>
      <path id="Tracé_172" data-name="Tracé 172" d="M-1504.081,2250.26a1.3,1.3,0,0,0-1.836-.073,13.047,13.047,0,0,1-4.515,2.725,1.3,1.3,0,0,0-.791,1.659,1.332,1.332,0,0,0,.1.221,1.294,1.294,0,0,0-.334.525,1.3,1.3,0,0,0,.816,1.646,13.112,13.112,0,0,1,4.594,2.687,1.294,1.294,0,0,0,.868.333,1.3,1.3,0,0,0,.967-.431,1.3,1.3,0,0,0-.1-1.835,15.708,15.708,0,0,0-4.271-2.743,15.62,15.62,0,0,0,4.424-2.877A1.3,1.3,0,0,0-1504.081,2250.26Z" transform="translate(-848.083 -276.681)" fill="#047eda"/>
      <path id="Tracé_173" data-name="Tracé 173" d="M-1391.927,2804.23a1.3,1.3,0,0,0-1.3,1.3v2.953a1.3,1.3,0,0,0,1.3,1.3,1.3,1.3,0,0,0,1.3-1.3v-2.953A1.3,1.3,0,0,0-1391.927,2804.23Z" transform="translate(-956.52 -784.868)" fill="#047eda"/>
      <path id="Tracé_174" data-name="Tracé 174" d="M-1391.927,2620.515a1.3,1.3,0,0,0-1.3,1.3v5.889a1.3,1.3,0,0,0,1.3,1.3,1.3,1.3,0,0,0,1.3-1.3v-5.889A1.3,1.3,0,0,0-1391.927,2620.515Z" transform="translate(-956.52 -616.463)" fill="#047eda"/>
      <path id="Tracé_175" data-name="Tracé 175" d="M-1395.25,2437.026a1.3,1.3,0,0,0-1.033,1.52,13.325,13.325,0,0,1,.234,2.485v3.143a1.3,1.3,0,0,0,1.3,1.3,1.3,1.3,0,0,0,1.3-1.3v-3.143a15.913,15.913,0,0,0-.279-2.972A1.3,1.3,0,0,0-1395.25,2437.026Z" transform="translate(-953.697 -448.244)" fill="#047eda"/>
      <path id="Tracé_176" data-name="Tracé 176" d="M-2362.939,2398.356a10.58,10.58,0,0,0-4.044,5.245,1.3,1.3,0,0,0,.8,1.655,1.3,1.3,0,0,0,.428.073,1.3,1.3,0,0,0,1.227-.872,7.964,7.964,0,0,1,3.045-3.948,1.3,1.3,0,0,0,.349-1.8A1.3,1.3,0,0,0-2362.939,2398.356Z" transform="translate(-63.845 -412.614)" fill="#047eda"/>
      <path id="Tracé_177" data-name="Tracé 177" d="M-2371.889,2519.327a1.3,1.3,0,0,0-1.3,1.3v26.7a1.3,1.3,0,0,0,1.3,1.3,1.3,1.3,0,0,0,1.3-1.3v-26.7A1.3,1.3,0,0,0-2371.889,2519.327Z" transform="translate(-58.224 -523.708)" fill="#047eda"/>
      <path id="Tracé_178" data-name="Tracé 178" d="M-2011.014,2398.355a10.58,10.58,0,0,0-4.044,5.245,1.3,1.3,0,0,0,.8,1.655,1.3,1.3,0,0,0,.428.073,1.3,1.3,0,0,0,1.227-.871,7.965,7.965,0,0,1,3.045-3.948,1.3,1.3,0,0,0,.349-1.8A1.3,1.3,0,0,0-2011.014,2398.355Z" transform="translate(-386.442 -412.613)" fill="#047eda"/>
      <path id="Tracé_179" data-name="Tracé 179" d="M-2019.964,2519.327a1.3,1.3,0,0,0-1.3,1.3v26.7a1.3,1.3,0,0,0,1.3,1.3,1.3,1.3,0,0,0,1.3-1.3v-26.7A1.3,1.3,0,0,0-2019.964,2519.327Z" transform="translate(-380.821 -523.708)" fill="#047eda"/>
    </g>
    <ellipse id="Ellipse_47" data-name="Ellipse 47" cx="44" cy="45.5" rx="44" ry="45.5" transform="translate(14 791)" fill="#047eda" opacity="0.13"/>
    <ellipse id="Ellipse_48" data-name="Ellipse 48" cx="44" cy="45.5" rx="44" ry="45.5" transform="translate(63 791)" fill="#047eda" opacity="0"/>
  </g>
</svg>
