<svg id="schedule-24px" xmlns="http://www.w3.org/2000/svg" width="22" height="22" viewBox="0 0 22 22">
  <path id="Tracé_217" data-name="Tracé 217" d="M0,0H22V22H0Z" fill="none"/>
  <path id="Tracé_218" data-name="Tracé 218" d="M10.991,2A9,9,0,1,0,20,11,9,9,0,0,0,10.991,2ZM11,18.2A7.2,7.2,0,1,1,18.2,11,7.2,7.2,0,0,1,11,18.2ZM10.8,6.5h-.054a.645.645,0,0,0-.648.648V11.4a.891.891,0,0,0,.441.774l3.735,2.241a.644.644,0,1,0,.657-1.107l-3.483-2.07V7.148A.645.645,0,0,0,10.8,6.5Z" fill="#f6f9fb"/>
</svg>
