<svg xmlns="http://www.w3.org/2000/svg" width="107.738" height="101.854" viewBox="0 0 107.738 101.854">
  <g id="Groupe_369" data-name="Groupe 369" transform="translate(-14 -780.146)">
    <ellipse id="Ellipse_47" data-name="Ellipse 47" cx="44" cy="45.5" rx="44" ry="45.5" transform="translate(14 791)" fill="#047eda" opacity="0.13"/>
    <g id="Groupe_359" data-name="Groupe 359" transform="translate(3189.34 -6852.924)">
      <path id="Tracé_187" data-name="Tracé 187" d="M-3043.447,8083.421a10.654,10.654,0,0,0-4.073,5.282,1.308,1.308,0,0,0,.8,1.667,1.294,1.294,0,0,0,.431.074,1.309,1.309,0,0,0,1.236-.878,8.023,8.023,0,0,1,3.067-3.977,1.308,1.308,0,0,0,.352-1.816A1.308,1.308,0,0,0-3043.447,8083.421Z" transform="translate(-67.557 -412.346)" fill="#047eda"/>
      <path id="Tracé_188" data-name="Tracé 188" d="M-3052.418,8204.391a1.309,1.309,0,0,0-1.309,1.309v26.887a1.309,1.309,0,0,0,1.309,1.309,1.309,1.309,0,0,0,1.309-1.309V8205.7A1.309,1.309,0,0,0-3052.418,8204.391Z" transform="translate(-61.939 -523.368)" fill="#047eda"/>
      <path id="Tracé_189" data-name="Tracé 189" d="M-2582.147,7637.765a1.333,1.333,0,0,0-1.344-1.242h-2.1v-2.143a1.309,1.309,0,0,0-1.372-1.307,1.333,1.333,0,0,0-1.245,1.344v2.105h-2.143a1.309,1.309,0,0,0-1.307,1.372,1.333,1.333,0,0,0,1.344,1.245h2.105v2.143a1.306,1.306,0,0,0,.717,1.166,1.294,1.294,0,0,0,.657.141,1.333,1.333,0,0,0,1.243-1.345v-2.1h2.142a1.307,1.307,0,0,0,1.167-.717A1.3,1.3,0,0,0-2582.147,7637.765Z" transform="translate(-548.218 4.998)" fill="#047eda"/>
      <path id="Tracé_190" data-name="Tracé 190" d="M-2694.392,7830.619h4.009v4.046a1.309,1.309,0,0,0,1.372,1.307,1.332,1.332,0,0,0,1.245-1.344v-4.009h4.046a1.307,1.307,0,0,0,1.167-.717,1.3,1.3,0,0,0,.14-.657,1.333,1.333,0,0,0-1.344-1.243h-4.008v-4.046a1.305,1.305,0,0,0-.717-1.166,1.294,1.294,0,0,0-.658-.141,1.333,1.333,0,0,0-1.243,1.345V7828h-4.045a1.308,1.308,0,0,0-1.307,1.372A1.333,1.333,0,0,0-2694.392,7830.619Z" transform="translate(-440.881 -167.666)" fill="#047eda"/>
      <path id="Tracé_191" data-name="Tracé 191" d="M-2627.886,8020.462h-4.009v-4.046a1.306,1.306,0,0,0-.717-1.167,1.3,1.3,0,0,0-.658-.14,1.333,1.333,0,0,0-1.243,1.344v4.008h-4.046a1.308,1.308,0,0,0-1.307,1.372,1.333,1.333,0,0,0,1.344,1.246h4.009v4.045a1.308,1.308,0,0,0,1.372,1.307,1.333,1.333,0,0,0,1.245-1.344v-4.008h4.046a1.307,1.307,0,0,0,1.167-.717,1.3,1.3,0,0,0,.14-.658A1.333,1.333,0,0,0-2627.886,8020.462Z" transform="translate(-441.062 -349.972)" fill="#047eda"/>
      <path id="Tracé_192" data-name="Tracé 192" d="M-3089.528,7680.157v-1.987a15.929,15.929,0,0,0-9.591-14.6,15.929,15.929,0,0,0,9.591-14.6,15.924,15.924,0,0,0-15.906-15.906,15.924,15.924,0,0,0-15.905,15.906,15.928,15.928,0,0,0,9.591,14.6,15.928,15.928,0,0,0-9.591,14.6v31.049a1.308,1.308,0,0,0,1.309,1.308,1.308,1.308,0,0,0,1.308-1.308V7678.17a13.3,13.3,0,0,1,13.288-13.289,13.3,13.3,0,0,1,13.29,13.289v2.1a15.928,15.928,0,0,0-13.931,15.783,15.924,15.924,0,0,0,15.905,15.907,15.925,15.925,0,0,0,15.906-15.907A15.925,15.925,0,0,0-3089.528,7680.157Zm-29.195-31.181a13.3,13.3,0,0,1,13.288-13.29,13.3,13.3,0,0,1,13.29,13.29,13.3,13.3,0,0,1-13.29,13.289A13.3,13.3,0,0,1-3118.723,7648.977Zm29.191,60.345c-.211.01-.425.016-.639.016a13.233,13.233,0,0,1-1.974-.147,13.308,13.308,0,0,1-11.314-13.142,13.308,13.308,0,0,1,11.314-13.141,13.168,13.168,0,0,1,1.974-.147q.324,0,.643.016a13.3,13.3,0,0,1,12.646,13.272A13.3,13.3,0,0,1-3089.532,7709.322Z" transform="translate(0 0)" fill="#047eda"/>
      <path id="Tracé_193" data-name="Tracé 193" d="M-2760.973,8288.8a1.306,1.306,0,0,0-1.85,0l-4.684,4.685-1.925,1.924a.294.294,0,0,0-.022.025l-.022.02-.023.028c-.014.017-.028.035-.042.052s-.024.031-.035.048-.03.044-.044.067l-.018.029a1.309,1.309,0,0,0,.206,1.582.072.072,0,0,1,.013.012l.012.014,1.9,1.9h0l1.541,1.541a1.309,1.309,0,0,0,1.332.318,1.311,1.311,0,0,0,.564-.365,1.334,1.334,0,0,0-.072-1.83l-2.514-2.514,5.683-5.684a1.308,1.308,0,0,0,.318-1.332A1.3,1.3,0,0,0-2760.973,8288.8Z" transform="translate(-322.021 -600.337)" fill="#047eda"/>
    </g>
  </g>
</svg>
