<svg xmlns="http://www.w3.org/2000/svg" width="113.439" height="101.854" viewBox="0 0 113.439 101.854">
  <g id="Groupe_368" data-name="Groupe 368" transform="translate(-14 -780.146)">
    <ellipse id="Ellipse_47" data-name="Ellipse 47" cx="44" cy="45.5" rx="44" ry="45.5" transform="translate(14 791)" fill="#047eda" opacity="0.13"/>
    <g id="Groupe_356" data-name="Groupe 356" transform="translate(-831.389 -4230.024)">
      <path id="Tracé_180" data-name="Tracé 180" d="M1145.583,5462.665a1.3,1.3,0,1,0-1.451-2.147,10.554,10.554,0,0,0-3.131,3.31,23.282,23.282,0,0,1,2.741.57A7.9,7.9,0,0,1,1145.583,5462.665Z" transform="translate(-264.739 -412.708)" fill="#047eda"/>
      <path id="Tracé_181" data-name="Tracé 181" d="M1485.3,5460.517a10.554,10.554,0,0,0-4.034,5.231,1.3,1.3,0,0,0,.8,1.651,1.318,1.318,0,0,0,.427.072,1.3,1.3,0,0,0,1.224-.869,7.945,7.945,0,0,1,3.038-3.937,1.3,1.3,0,0,0-1.451-2.148Z" transform="translate(-576.653 -412.707)" fill="#047eda"/>
      <path id="Tracé_182" data-name="Tracé 182" d="M1139.452,5040.378a15.752,15.752,0,1,0-20.71-20.71,15.75,15.75,0,0,0-28.913,0,263.75,263.75,0,0,0-29.745,31.362,24.031,24.031,0,0,1,2.739-.165,13.161,13.161,0,0,1,25.71,3.968v30.751a1.3,1.3,0,1,0,2.592,0v-30.751a13.16,13.16,0,0,1,26.321,0v30.749a1.3,1.3,0,0,0,2.592,0v-30.749a13.161,13.161,0,1,1,26.321,0v30.749a1.3,1.3,0,0,0,2.592,0v-30.749A15.776,15.776,0,0,0,1139.452,5040.378Zm-77.24-14.457a13.161,13.161,0,1,1,13.16,13.162A13.175,13.175,0,0,1,1062.212,5025.921Zm27.618,22.66a8.2,8.2,0,1,1,0-16.405,8.2,8.2,0,1,1,0,16.405Zm1.3-22.66a13.16,13.16,0,1,1,13.16,13.162A13.176,13.176,0,0,1,1091.125,5025.921Zm27.617,22.66a8.2,8.2,0,1,1,0-16.405,8.2,8.2,0,0,1,0,16.405Zm1.3-22.658v0h0a13.161,13.161,0,1,1,13.161,13.163A13.175,13.175,0,0,1,1120.038,5025.92Z" transform="translate(-190.123 0.001)" fill="#047eda"/>
      <path id="Tracé_183" data-name="Tracé 183" d="M1833.127,5460.517a10.554,10.554,0,0,0-4.034,5.231,1.3,1.3,0,0,0,.8,1.651,1.316,1.316,0,0,0,.427.072,1.3,1.3,0,0,0,1.224-.869,7.944,7.944,0,0,1,3.038-3.937,1.3,1.3,0,0,0-1.451-2.148Z" transform="translate(-895.567 -412.707)" fill="#047eda"/>
      <path id="Tracé_184" data-name="Tracé 184" d="M1476.357,5581.488a1.3,1.3,0,0,0-1.3,1.3v26.628a1.3,1.3,0,1,0,2.592,0v-26.628A1.3,1.3,0,0,0,1476.357,5581.488Z" transform="translate(-571.031 -523.827)" fill="#047eda"/>
      <path id="Tracé_185" data-name="Tracé 185" d="M1824.183,5581.488a1.3,1.3,0,0,0-1.3,1.3v26.628a1.3,1.3,0,0,0,2.592,0v-26.628A1.3,1.3,0,0,0,1824.183,5581.488Z" transform="translate(-889.944 -523.827)" fill="#047eda"/>
      <path id="Tracé_186" data-name="Tracé 186" d="M888.726,5570.042a20.537,20.537,0,0,0-11.3-32.929q-.973-.225-1.973-.353a20.657,20.657,0,0,0-2.668-.171q-.334,0-.666.011a20.524,20.524,0,1,0,14.849,35.348l9.133,9.133a1.3,1.3,0,0,0,1.833-1.833Zm-3.262-.249a17.932,17.932,0,1,1-15.967-30.314,18.04,18.04,0,0,1,2.592-.285c.231-.009.463-.013.7-.013a17.932,17.932,0,0,1,12.68,30.611Z" transform="translate(0 -482.66)" fill="#047eda"/>
    </g>
  </g>
</svg>
