<svg xmlns="http://www.w3.org/2000/svg" viewBox="0 0 211.16 63.71"><defs><style>.cls-1{fill:none;}.cls-2{fill:#fff;}.cls-3{fill:#79b8e6;}.cls-4{fill:#3969b1;}.cls-5{fill:#2a4d80;}</style></defs><g id="Calque_2" data-name="Calque 2"><g id="bleu"><path class="cls-1" d="M49.31,50.31l-.37-7.19A28.36,28.36,0,0,0,49.31,50.31Z"/><path class="cls-2" d="M60.38,59.21a11.85,11.85,0,0,1-2.88.22,8,8,0,0,1-7.27-4.76,8.16,8.16,0,0,1-.57-1.29l1.56,5.44s1.2,6.19,10,4.65S116.38,52,116.38,52s2.77-2.22,4.66-4a6.8,6.8,0,0,1-1.44.45Z"/><path class="cls-2" d="M49.66,53.38l-.23-.79A6.11,6.11,0,0,0,49.66,53.38Z"/><path class="cls-2" d="M49.43,52.59l.23.79a8.16,8.16,0,0,0,.57,1.29A12.2,12.2,0,0,1,49.43,52.59Z"/><path class="cls-2" d="M121.34,40.56C117.06,34.79,96.91,7.89,96.91,7.89s-1.44-2.41-6.5-2.43-38.2,0-38.2,0-4.87.14-5.07,2.6l1.8,35.05h0l.37,7.19a15,15,0,0,0,.6,2.14l.09.2a8.68,8.68,0,0,0,10.17,5.58l59.25-10.77a4.11,4.11,0,0,0,2.91-1.72l.19-.38.52-1.07A7.7,7.7,0,0,0,121.34,40.56ZM112.93,39l-1.21,4-1.2-.63ZM94.61,10.23l.57.34-1.34,1.8Zm-36.33,32-.43,3-1.41-1ZM53.77,10.64l-.1,1.3-1.15-.59Z"/><polygon points="53.77 10.64 52.52 11.35 53.67 11.94 53.77 10.64"/><polygon points="58.28 42.21 56.45 44.29 57.85 45.25 58.28 42.21"/><polygon points="112.93 39.02 110.52 42.39 111.72 43.02 112.93 39.02"/><polygon points="94.61 10.23 93.84 12.37 95.18 10.57 94.61 10.23"/><polygon class="cls-2" points="48.94 43.12 48.94 43.12 48.94 43.12 48.94 43.12"/><path class="cls-3" d="M123,44.29l-.52,1.07-.19.38a4.11,4.11,0,0,1-2.91,1.72L60.17,58.23A8.68,8.68,0,0,1,50,52.65l-.09-.2a15,15,0,0,1-.6-2.14l.12,2.28a12.2,12.2,0,0,0,.8,2.08,8,8,0,0,0,7.27,4.76,11.85,11.85,0,0,0,2.88-.22L119.6,48.45A6.8,6.8,0,0,0,121,48a7.23,7.23,0,0,0,1.72-2h0A3,3,0,0,0,123,44.29Z"/><path class="cls-3" d="M54.37,2.72,78.62,15.07c-.29.35-19.43,20.71-19.43,20.71l8,5.11L84.9,18.3l31.42,16,1.1-4.83L87.85,14.62,97.36,2.54l-5-2.19L82.09,11.77,58.63,0Z"/><polygon class="cls-4" points="116.32 34.27 110.52 42.39 82.58 27.55 81.73 28.32 84.9 18.3 116.32 34.27"/><polygon class="cls-5" points="84.9 18.3 67.2 40.89 65.08 49.78 65.67 50.16 82.58 27.55 84.9 18.3"/><polygon class="cls-4" points="67.2 40.89 59.19 35.78 57.85 45.25 65.08 49.78 67.2 40.89"/><polygon class="cls-4" points="54.37 2.72 78.62 15.07 72.27 21.86 53.67 11.94 54.37 2.72"/><polygon class="cls-5" points="97.36 2.54 93.84 12.37 90.92 16.16 87.85 14.62 97.36 2.54"/><path class="cls-2" d="M41.46,37.34c-2.21,6.77-8,13.4-20.62,13.4C5.15,50.74,0,39.77,0,30.41,0,19.74,6.55,10.09,20.84,10.09c9.87,0,21.57,4.27,21.57,21.65h-37c0,8,5.67,14.43,15.39,14.43,9.13,0,13.25-3,15.17-8.83ZM37,27.61c-1.55-9.42-8.47-13-15.76-13-7,0-14.51,3.61-15.76,13Z"/><path class="cls-2" d="M145.87,10.09c14.73,0,21.73,9.65,21.73,20.32s-7,20.33-21.73,20.33-21.72-9.65-21.72-20.33S131.15,10.09,145.87,10.09Zm0,36.08c10.31,0,16.28-6.55,16.28-15.76s-6-15.76-16.28-15.76S129.6,21.21,129.6,30.41,135.57,46.17,145.87,46.17Z"/><path class="cls-2" d="M204.61,22.61c-1.4-6.19-5.23-8-13.19-8-5.74,0-11,1.26-11,6.56,0,4,2.58,4.79,14.21,6.33s16.57,3.61,16.57,11.05S205,50.74,193,50.74c-12.15,0-19.37-4-19.37-13.18h5c1,6.4,4.57,8.61,14.36,8.61,7.58,0,12.74-1.54,12.74-7.29,0-3.83-2.73-5.52-14.65-6.7s-16.13-4-16.13-10.75,5.37-11.34,16.49-11.34c12.45,0,17.53,4.49,18.19,12.52Z"/></g></g></svg>