<svg id="Groupe_629" data-name="Groupe 629" xmlns="http://www.w3.org/2000/svg" xmlns:xlink="http://www.w3.org/1999/xlink" width="110" height="26.016" viewBox="0 0 110 26.016">
  <defs>
    <clipPath id="clip-path">
      <rect id="Rectangle_1262" data-name="Rectangle 1262" width="110" height="26.016" fill="none"/>
    </clipPath>
  </defs>
  <g id="Groupe_616" data-name="Groupe 616" clip-path="url(#clip-path)">
    <path id="Tracé_222" data-name="Tracé 222" d="M158.5,11.237V8.982a1.153,1.153,0,0,0-1.151-1.151H155.5L148.189.523a1.212,1.212,0,0,0-1.705,0l-2.953,2.955a1.206,1.206,0,0,0,0,1.7l7.963,7.965-7.963,7.963a1.206,1.206,0,0,0,0,1.7l2.953,2.955a1.212,1.212,0,0,0,1.705,0l6.268-6.268a1.465,1.465,0,0,1-.651-1.215V13.848a1.466,1.466,0,0,1,1.462-1.462h2.078a1.153,1.153,0,0,0,1.151-1.149" transform="translate(-113.696 -0.137)" fill="#047eda"/>
    <path id="Tracé_223" data-name="Tracé 223" d="M202.1,15.053v2.255a1.153,1.153,0,0,0,1.151,1.151H205.1l7.308,7.308a1.212,1.212,0,0,0,1.705,0l2.953-2.955a1.206,1.206,0,0,0,0-1.7L209.1,13.144l7.963-7.963a1.206,1.206,0,0,0,0-1.7L214.112.523a1.212,1.212,0,0,0-1.705,0l-6.268,6.268a1.466,1.466,0,0,1,.651,1.215v4.436a1.466,1.466,0,0,1-1.462,1.462H203.25a1.153,1.153,0,0,0-1.151,1.149" transform="translate(-160.483 -0.137)" fill="#f6f9fb"/>
    <path id="Tracé_224" data-name="Tracé 224" d="M13.461,26.017A14.811,14.811,0,0,1,7.8,24.991,12.567,12.567,0,0,1,3.556,22.2,11.942,11.942,0,0,1,.907,18.117,13.155,13.155,0,0,1,0,13.272,14.445,14.445,0,0,1,.907,8.141,12.443,12.443,0,0,1,3.532,3.916,12.263,12.263,0,0,1,7.757,1.052,14.654,14.654,0,0,1,13.461,0a14.479,14.479,0,0,1,5.68,1.05,12.484,12.484,0,0,1,4.2,2.84,12.052,12.052,0,0,1,2.6,4.129,13.808,13.808,0,0,1,.883,4.917q0,.669-.048,1.313a9.433,9.433,0,0,1-.143,1.122H8.115a5.147,5.147,0,0,0,1.838,3.843A5.846,5.846,0,0,0,13.7,20.528a6.859,6.859,0,0,0,3.222-.811A4.144,4.144,0,0,0,19,17.52l6.492,1.814a11.681,11.681,0,0,1-4.583,4.821,14.214,14.214,0,0,1-7.446,1.862m5.3-15.371a5.745,5.745,0,0,0-1.718-3.771,5.176,5.176,0,0,0-3.675-1.384A5.1,5.1,0,0,0,9.666,6.9a5.841,5.841,0,0,0-1.695,3.747Z" transform="translate(0 -0.002)" fill="#f6f9fb"/>
    <path id="Tracé_225" data-name="Tracé 225" d="M439.8,26.017a19.947,19.947,0,0,1-6.3-1.026,14.372,14.372,0,0,1-5.251-2.983l2.721-4.678a22.614,22.614,0,0,0,4.463,2.434,11.334,11.334,0,0,0,4.177.859A4.207,4.207,0,0,0,441.9,20.1a1.708,1.708,0,0,0,.812-1.528,1.8,1.8,0,0,0-1.026-1.6,15.84,15.84,0,0,0-3.6-1.265q-2.531-.716-4.272-1.384a12.011,12.011,0,0,1-2.84-1.48,4.794,4.794,0,0,1-1.575-1.862,5.948,5.948,0,0,1-.478-2.482,7.8,7.8,0,0,1,2.864-6.158A9.972,9.972,0,0,1,434.957.623,12.4,12.4,0,0,1,438.942,0a17.708,17.708,0,0,1,5.275.764,13.2,13.2,0,0,1,4.75,2.769l-2.959,4.583a20.219,20.219,0,0,0-3.819-2.148,8.721,8.721,0,0,0-3.246-.668,4.1,4.1,0,0,0-2.1.5,1.714,1.714,0,0,0-.859,1.6,1.7,1.7,0,0,0,.931,1.575,15.387,15.387,0,0,0,3.461,1.146,44.065,44.065,0,0,1,4.511,1.432,12.085,12.085,0,0,1,2.983,1.6,5.432,5.432,0,0,1,1.671,2.029,6.492,6.492,0,0,1,.525,2.721,7.161,7.161,0,0,1-2.768,5.919,11.735,11.735,0,0,1-7.494,2.2" transform="translate(-340.065 -0.002)" fill="#f6f9fb"/>
    <path id="Tracé_226" data-name="Tracé 226" d="M302.4,0a13.008,13.008,0,1,0,13.008,13.008A13.008,13.008,0,0,0,302.4,0m0,19.429a6.42,6.42,0,1,1,6.421-6.421,6.421,6.421,0,0,1-6.421,6.421" transform="translate(-229.8)" fill="#f6f9fb"/>
  </g>
</svg>
