<svg id="_01" xmlns="http://www.w3.org/2000/svg" width="155" height="43.383" viewBox="0 0 155 43.383">
  <g id="Groupe_60" data-name="Groupe 60">
    <g id="Groupe_51" data-name="Groupe 51" transform="translate(0 14.363)">
      <path id="Tracé_53" data-name="Tracé 53" d="M14.988,55.283A16.324,16.324,0,0,1,8.7,54.134a13.606,13.606,0,0,1-4.7-3.118A14.2,14.2,0,0,1,0,41.115a15.026,15.026,0,0,1,1.039-5.689,13.859,13.859,0,0,1,2.9-4.7,13,13,0,0,1,4.7-3.173A16.608,16.608,0,0,1,14.988,26.4a16.615,16.615,0,0,1,6.345,1.094,13.614,13.614,0,0,1,7.549,7.768,15.379,15.379,0,0,1,.985,5.47,13.331,13.331,0,0,1-.055,1.477c-.055.492-.109.875-.164,1.258H9.026a5.888,5.888,0,0,0,2.024,4.267,6.44,6.44,0,0,0,4.212,1.422,7.709,7.709,0,0,0,3.61-.93,4.555,4.555,0,0,0,2.3-2.462l7.221,2.024A12.926,12.926,0,0,1,23.3,53.15a15.67,15.67,0,0,1-8.315,2.133ZM20.9,38.161a6.458,6.458,0,0,0-1.915-4.212,5.7,5.7,0,0,0-4.1-1.532A5.744,5.744,0,0,0,10.776,34a6.721,6.721,0,0,0-1.915,4.157Z" transform="translate(0 -26.318)" fill="#11191f"/>
      <path id="Tracé_54" data-name="Tracé 54" d="M195.055,55.283a22.092,22.092,0,0,1-7-1.149A15.768,15.768,0,0,1,182.2,50.8l3.009-5.2a26.581,26.581,0,0,0,4.978,2.735,12.253,12.253,0,0,0,4.65.985,4.371,4.371,0,0,0,2.571-.6,1.9,1.9,0,0,0,.875-1.7,1.99,1.99,0,0,0-1.149-1.75,17.326,17.326,0,0,0-3.993-1.422c-1.86-.547-3.446-1.039-4.759-1.532a13.127,13.127,0,0,1-3.173-1.641,5.181,5.181,0,0,1-1.75-2.079,6.957,6.957,0,0,1-.547-2.735,8.677,8.677,0,0,1,3.227-6.838,12.931,12.931,0,0,1,3.556-1.915,14.461,14.461,0,0,1,4.431-.711,20.183,20.183,0,0,1,5.853.821,14.681,14.681,0,0,1,5.306,3.063L202,35.371a21.942,21.942,0,0,0-4.267-2.407,9.962,9.962,0,0,0-3.61-.766,4.538,4.538,0,0,0-2.352.547,1.912,1.912,0,0,0-.985,1.75,1.863,1.863,0,0,0,1.039,1.75,16.973,16.973,0,0,0,3.829,1.258,51,51,0,0,1,5.033,1.586,17.016,17.016,0,0,1,3.337,1.75,5.927,5.927,0,0,1,1.86,2.243,7.191,7.191,0,0,1,.6,3.009,7.9,7.9,0,0,1-3.063,6.564c-2.079,1.805-4.869,2.626-8.369,2.626Z" transform="translate(-82.521 -26.318)" fill="#11191f"/>
      <path id="Tracé_55" data-name="Tracé 55" d="M138.5,26.3a14.5,14.5,0,1,0,14.5,14.5A14.521,14.521,0,0,0,138.5,26.3Zm0,21.607a7.166,7.166,0,1,1,7.166-7.166A7.155,7.155,0,0,1,138.5,47.907Z" transform="translate(-56.161 -26.273)" fill="#11191f"/>
      <g id="Groupe_49" data-name="Groupe 49" transform="translate(33.618)">
        <path id="Tracé_56" data-name="Tracé 56" d="M85.8,42.788v2.626a1.331,1.331,0,0,0,1.313,1.313h2.079l8.151,8.151a1.322,1.322,0,0,0,1.915,0l3.282-3.282a1.322,1.322,0,0,0,0-1.915l-8.862-8.862,8.862-8.862a1.322,1.322,0,0,0,0-1.915L99.257,26.76a1.322,1.322,0,0,0-1.915,0l-7.057,7a1.61,1.61,0,0,1,.766,1.368v4.759a1.588,1.588,0,0,1-1.586,1.586h-2.3A1.343,1.343,0,0,0,85.8,42.788Z" transform="translate(-72.48 -26.295)" fill="#11191f"/>
        <path id="Tracé_57" data-name="Tracé 57" d="M78.545,38.75V36.124a1.331,1.331,0,0,0-1.313-1.313H75.208L67.057,26.66a1.322,1.322,0,0,0-1.915,0L61.86,29.942a1.322,1.322,0,0,0,0,1.915l8.862,8.862L61.86,49.581a1.322,1.322,0,0,0,0,1.915l3.282,3.282a1.426,1.426,0,0,0,1.915,0l7-7a1.61,1.61,0,0,1-.766-1.368V41.649a1.588,1.588,0,0,1,1.586-1.586h2.3a1.38,1.38,0,0,0,1.368-1.313Z" transform="translate(-61.45 -26.25)" fill="#047eda"/>
      </g>
      <path id="Tracé_58" data-name="Tracé 58" d="M250.027,44.188H237.883V41.781l5.744-6.127a19.937,19.937,0,0,0,1.75-2.243,3.435,3.435,0,0,0,.547-1.805,2.81,2.81,0,0,0-.6-1.86,2.185,2.185,0,0,0-1.7-.656,2.293,2.293,0,0,0-1.86.821,3.384,3.384,0,0,0-.711,2.188H237.5a5.937,5.937,0,0,1,.766-2.954,5.351,5.351,0,0,1,2.188-2.079,6.859,6.859,0,0,1,3.227-.766,6.418,6.418,0,0,1,4.267,1.313,4.6,4.6,0,0,1,1.532,3.72,6.227,6.227,0,0,1-.656,2.68,14.147,14.147,0,0,1-2.352,3.173l-4.048,4.267h7.6v2.735Z" transform="translate(-107.568 -26.273)" fill="#11191f"/>
      <g id="Groupe_50" data-name="Groupe 50" transform="translate(129.987 19.994)">
        <path id="Tracé_59" data-name="Tracé 59" d="M242.906,71.552a2.556,2.556,0,0,1-.219-.766,2.807,2.807,0,0,1-2.188.93,3,3,0,0,1-2.079-.711,2.369,2.369,0,0,1-.821-1.86,2.319,2.319,0,0,1,1.039-2.079,5.02,5.02,0,0,1,2.954-.711h1.039v-.492a1.527,1.527,0,0,0-.328-.985,1.17,1.17,0,0,0-.985-.383,1.565,1.565,0,0,0-.93.274.918.918,0,0,0-.328.766h-2.3a2.394,2.394,0,0,1,.438-1.368,2.987,2.987,0,0,1,1.313-.985,5.186,5.186,0,0,1,1.915-.383,3.668,3.668,0,0,1,2.516.821,2.845,2.845,0,0,1,.93,2.243v3.72a4.194,4.194,0,0,0,.328,1.86v.109Zm-1.915-1.586a1.8,1.8,0,0,0,.93-.219,2.332,2.332,0,0,0,.656-.6V67.669H241.7c-1.149,0-1.75.383-1.86,1.2v.109a1.04,1.04,0,0,0,.274.711,1.653,1.653,0,0,0,.875.274Z" transform="translate(-237.6 -62.8)" fill="#11191f"/>
        <path id="Tracé_60" data-name="Tracé 60" d="M256.143,62.964l.055.985a2.962,2.962,0,0,1,2.462-1.149,2.412,2.412,0,0,1,2.024.821,3.718,3.718,0,0,1,.656,2.407v5.58h-2.3V66.082a1.181,1.181,0,0,0-1.368-1.368,1.612,1.612,0,0,0-1.477.821v6.072h-2.3V62.964Z" transform="translate(-244.984 -62.8)" fill="#11191f"/>
        <path id="Tracé_61" data-name="Tracé 61" d="M275.051,69.2a.68.68,0,0,0-.438-.656,3.97,3.97,0,0,0-1.368-.438c-2.024-.438-3.063-1.313-3.063-2.626a2.409,2.409,0,0,1,.93-1.915,4,4,0,0,1,2.462-.766,4.278,4.278,0,0,1,2.626.766,2.439,2.439,0,0,1,.985,2.024h-2.3a1.113,1.113,0,0,0-.328-.821,1.337,1.337,0,0,0-.985-.328,1.285,1.285,0,0,0-.875.274.78.78,0,0,0-.328.656.638.638,0,0,0,.383.6,3.88,3.88,0,0,0,1.2.383,7.551,7.551,0,0,1,1.422.383,2.353,2.353,0,0,1,1.805,2.3,2.234,2.234,0,0,1-1.039,1.915,5.107,5.107,0,0,1-4.54.328,3.58,3.58,0,0,1-1.313-1.039,2.4,2.4,0,0,1-.492-1.477h2.188a1.094,1.094,0,0,0,.438.93,1.8,1.8,0,0,0,1.149.328,1.624,1.624,0,0,0,.985-.274.5.5,0,0,0,.492-.547Z" transform="translate(-252.186 -62.8)" fill="#11191f"/>
      </g>
      <path id="Tracé_62" data-name="Tracé 62" d="M273.106,32.786l-3.774-.547v.055a6.731,6.731,0,0,1,.6,3.227v4.212a6.693,6.693,0,0,1-.6,3.118,1.97,1.97,0,0,1-1.86.985,2.053,2.053,0,0,1-1.915-1.039,6.885,6.885,0,0,1-.6-3.227V35.248a6.054,6.054,0,0,1,.6-3.009c.109-.164.274-.328.383-.492l-3.556-.547a9.929,9.929,0,0,0-.985,4.759v3.282a8.465,8.465,0,0,0,1.586,5.47,5.441,5.441,0,0,0,4.431,1.915,5.254,5.254,0,0,0,4.431-1.969,8.862,8.862,0,0,0,1.532-5.634V35.74a10.059,10.059,0,0,0-.274-2.954Z" transform="translate(-118.394 -28.492)" fill="#047eda"/>
    </g>
    <g id="Groupe_52" data-name="Groupe 52" transform="translate(144.975)">
      <path id="Tracé_63" data-name="Tracé 63" d="M271.564,7.3l1.532,6.4,1.477,6.4-4.759-.711L265,18.678l3.282-5.689Z" transform="translate(-265 -3.307)" fill="#047eda"/>
      <path id="Tracé_64" data-name="Tracé 64" d="M276.9,5.879h.055l.055-.055,1.313-.164,1.586-.219-.383-.821-.383-.821-1.149,1.039-.93.766-.164.164Z" transform="translate(-270.39 -1.721)" fill="#da770f"/>
      <path id="Tracé_65" data-name="Tracé 65" d="M276.9,4.212l.164-2.133L277.228,0l.875.274.875.274-1.039,1.805Z" transform="translate(-270.39)" fill="#da770f"/>
    </g>
    <g id="Groupe_59" data-name="Groupe 59" transform="translate(131.956 0.821)">
      <g id="Groupe_53" data-name="Groupe 53" transform="translate(8.019 3.369)">
        <path id="Tracé_66" data-name="Tracé 66" d="M258.4,10.739Zm.492-1.039Z" transform="translate(-257.01 -8.583)" fill="#047eda"/>
        <path id="Tracé_67" data-name="Tracé 67" d="M258.507,10.635a.1.1,0,0,1-.055.164l-.438.219a.1.1,0,0,1-.164-.055l-.492-1.149-.055.055h0l-1.039.492a.1.1,0,0,1-.164-.055l-.219-.438a.1.1,0,0,1,.055-.164l1.149-.492-.6-1.2a.1.1,0,0,1,.055-.164l.438-.164a.1.1,0,0,1,.164.055l.492,1.149.055-.055,1.039-.492a.1.1,0,0,1,.164.055l.219.438a.1.1,0,0,1-.055.164l-1.149.492.6,1.149Z" transform="translate(-255.859 -7.659)" fill="#047eda"/>
      </g>
      <g id="Groupe_54" data-name="Groupe 54" transform="translate(9.769 8.237)">
        <path id="Tracé_68" data-name="Tracé 68" d="M261.583,19.075ZM261.2,18.2Z" transform="translate(-260.029 -17.302)" fill="#047eda"/>
        <path id="Tracé_69" data-name="Tracé 69" d="M261.762,18.058c.055,0,.109.055.055.109l-.109.328c0,.055-.055.109-.109.055l-.985-.328v.055h0l-.328.93c0,.055-.055.109-.109.055l-.328-.109c-.055,0-.109-.055-.055-.109l.328-.985-.985-.328c-.055,0-.109-.055-.055-.109l.109-.328c0-.055.055-.109.109-.055l.985.328v-.055l.328-.875c0-.055.055-.109.109-.055l.328.109c.055,0,.109.055.055.109l-.328.985Z" transform="translate(-259.059 -16.559)" fill="#047eda"/>
      </g>
      <g id="Groupe_55" data-name="Groupe 55" transform="translate(0 7.221)">
        <path id="Tracé_70" data-name="Tracé 70" d="M242.7,16.447Zm.219-.547Z" transform="translate(-241.879 -15.244)" fill="#047eda"/>
        <path id="Tracé_71" data-name="Tracé 71" d="M242.732,16.341c0,.055,0,.055-.055.109l-.219.109c-.055,0-.055,0-.109-.055l-.328-.6h-.055l-.547.328c-.055,0-.055,0-.109-.055l-.109-.219c0-.055,0-.055.055-.109l.6-.328-.328-.6c0-.055,0-.055.055-.109l.219-.109c.055,0,.055,0,.109.055l.328.6h.055l.6-.328c.055,0,.055,0,.109.055l.109.219c0,.055,0,.055-.055.109l-.6.328.274.6Z" transform="translate(-241.2 -14.7)" fill="#047eda"/>
      </g>
      <g id="Groupe_56" data-name="Groupe 56" transform="translate(11.269)">
        <path id="Tracé_72" data-name="Tracé 72" d="M263.1,3.419Zm.547-.219Z" transform="translate(-262.389 -2.27)" fill="#da770f"/>
        <path id="Tracé_73" data-name="Tracé 73" d="M262.675,3.469c0,.055-.055.055-.109.055l-.219-.109c-.055,0-.055-.055-.055-.109l.219-.656h-.055l-.6-.219c-.055,0-.055-.055-.055-.109l.055-.274c0-.055.055-.055.109-.055l.656.219.219-.656c0-.055.055-.055.109-.055l.274.055c.055,0,.055.055.055.109l-.219.656h.055l.6.219c.055,0,.055.055.055.109l-.055.219c0,.055-.055.055-.109.055l-.656-.219C262.894,2.813,262.675,3.469,262.675,3.469Z" transform="translate(-261.8 -1.5)" fill="#da770f"/>
      </g>
      <g id="Groupe_57" data-name="Groupe 57" transform="translate(4.08 7.855)">
        <path id="Tracé_74" data-name="Tracé 74" d="M251.783,19.085ZM251.4,18.1Z" transform="translate(-249.9 -16.874)" fill="#da770f"/>
        <path id="Tracé_75" data-name="Tracé 75" d="M251.963,17.741a.1.1,0,0,1,.055.164l-.164.438a.1.1,0,0,1-.164.055l-1.149-.383v.055h0l-.383,1.094a.1.1,0,0,1-.164.055l-.438-.164a.1.1,0,0,1-.055-.164l.383-1.149-1.149-.383a.1.1,0,0,1-.055-.164l.164-.438a.1.1,0,0,1,.164-.055l1.149.383V17.03l.383-1.094a.1.1,0,0,1,.164-.055l.438.164a.1.1,0,0,1,.055.164l-.383,1.149,1.149.383Z" transform="translate(-248.659 -15.859)" fill="#da770f"/>
      </g>
      <g id="Groupe_58" data-name="Groupe 58" transform="translate(12.885 4.663)">
        <path id="Tracé_76" data-name="Tracé 76" d="M266.1,11.647Zm.055-.547Z" transform="translate(-265.365 -10.512)" fill="#2a78bd"/>
        <path id="Tracé_77" data-name="Tracé 77" d="M266.257,11.269a.076.076,0,0,1,0,.109l-.164.164c0,.055-.055.055-.109,0l-.492-.383v.055h0l-.383.438c0,.055-.055.055-.109,0l-.164-.164a.076.076,0,0,1,0-.109l.438-.492-.492-.438a.076.076,0,0,1,0-.109l.164-.164c0-.055.055-.055.109,0l.492.383V10.5l.383-.438c0-.055.055-.055.109,0l.164.164a.076.076,0,0,1,0,.109l-.438.492.492.438Z" transform="translate(-264.756 -10.025)" fill="#da770f"/>
      </g>
    </g>
  </g>
</svg>
